<svg clip-rule="evenodd" fill-rule="evenodd" stroke-linejoin="round" stroke-miterlimit="2" viewBox="0 0 32 32" xmlns="http://www.w3.org/2000/svg" xmlns:xlink="http://www.w3.org/1999/xlink"><linearGradient id="_Linear1" gradientTransform="matrix(0 6.68 -7.818 0 152 9.836)" gradientUnits="userSpaceOnUse" x1="0" x2="1" y1="0" y2="0"><stop offset="0" stop-color="#5c2f00"/><stop offset="1" stop-color="#a55400"/></linearGradient><linearGradient id="_Linear3" gradientTransform="matrix(0 .238 20.739 0 152.006 11.642)" gradientUnits="userSpaceOnUse" x1="0" x2="1" y1="0" y2="0"><stop offset="0" stop-color="#bad3e8"/><stop offset="1" stop-color="#e4eaef"/></linearGradient><linearGradient id="lg1"><stop offset="0" stop-color="#965b31"/><stop offset=".5" stop-color="#f9aa57"/><stop offset="1" stop-color="#965b31"/></linearGradient><linearGradient id="_Linear5" gradientTransform="matrix(-10.287 23.538 -23.538 -10.287 115.416 140.537)" gradientUnits="userSpaceOnUse" x1="0" x2="1" xlink:href="#lg1" y1="0" y2="0"/><linearGradient id="_Linear6" gradientTransform="matrix(10.801 14.738 -14.738 10.801 104.271 141.451)" gradientUnits="userSpaceOnUse" x1="0" x2="1" xlink:href="#lg1" y1="0" y2="0"/><linearGradient id="_Linear7" gradientTransform="matrix(-7.67 -13.413 13.413 -7.67 115.983 158.196)" gradientUnits="userSpaceOnUse" x1="0" x2="1" y1="0" y2="0"><stop offset="0" stop-color="#3d1f00"/><stop offset="1" stop-color="#a55400"/></linearGradient><linearGradient id="_Linear8" gradientTransform="matrix(-7.17 12.477 -12.477 -7.17 32.548 22.025)" gradientUnits="userSpaceOnUse" x1="0" x2="1" xlink:href="#lg1" y1="0" y2="0"/><g transform="translate(-178 -136)"><g><g transform="matrix(.495 .495 -1.093 1.093 127.904 66.415)"><path d="m157 8.939h-10v8.499c0 .101.13.193.332.235.203.042.441.027.611-.038.893-.347 2.1-.814 2.1-.814l1.968-1.408 1.946 1.403s1.206.469 2.099.817c.169.065.408.081.611.038.203-.042.333-.134.333-.235 0-1.98 0-8.497 0-8.497z" fill="url(#_Linear1)"/></g><g transform="matrix(-.495 .495 1.093 1.093 260.088 66.415)"><path d="m157 8.939h-10v8.499c0 .101.13.193.332.235.203.042.441.027.611-.038.893-.347 2.1-.814 2.1-.814l1.968-1.209 1.946 1.204s1.206.469 2.099.817c.169.065.408.081.611.038.203-.042.333-.134.333-.235 0-1.98 0-8.497 0-8.497z" fill="url(#_Linear1)"/></g><g transform="matrix(.242 .242 -21.097 21.097 398.558 -127.397)"><path d="m148 11.879v-.408h8v.408l-3.977-.04z" fill="url(#_Linear3)"/></g><g transform="matrix(-.242 .242 21.097 21.097 -10.567 -127.397)"><path d="m148 11.879v-.408h8v.408l-3.977-.04z" fill="url(#_Linear3)"/></g><g transform="matrix(.748 0 0 .748 111.721 36.253)"><path d="m104.904 141.53c.504.136 1.036-.085 1.295-.538.769-1.171 2.197-1.992 3.801-1.992s3.032.821 3.8 1.993c.26.452.792.672 1.296.536 1.372-.285 2.962.144 4.096 1.279 1.135 1.134 1.564 2.724 1.278 4.096-.136.504.085 1.036.538 1.295 1.171.769 1.992 2.197 1.992 3.801s-.821 3.032-1.993 3.8c-.452.26-.672.792-.536 1.296.285 1.372-.144 2.962-1.279 4.096-1.134 1.135-2.724 1.564-4.096 1.278-.504-.136-1.036.085-1.295.538-.769 1.171-2.197 1.992-3.801 1.992s-3.032-.821-3.8-1.993c-.26-.452-.792-.672-1.296-.536-1.372.285-2.962-.144-4.096-1.279-1.135-1.134-1.564-2.724-1.278-4.096.136-.504-.085-1.036-.538-1.295-1.171-.769-1.992-2.197-1.992-3.801s.821-3.032 1.993-3.8c.452-.26.672-.792.536-1.296-.285-1.372.144-2.962 1.279-4.096 1.134-1.135 2.724-1.564 4.096-1.278z" fill="url(#_Linear5)"/></g><g transform="matrix(.994 0 0 .994 84.646 2.231)"><circle cx="110" cy="148.59" fill="url(#_Linear6)" r="7.59"/></g><g transform="matrix(.848 0 0 .848 100.75 23.984)"><circle cx="110" cy="148.59" fill="url(#_Linear7)" r="7.59"/></g><g transform="matrix(.64 0 0 .64 176.086 131.934)"><path d="m27.428 22.296c.1-.227.324-.373.572-.373s.472.146.572.373c.567 1.283 1.351 3.058 1.351 3.058s1.93.197 3.325.339c.247.025.455.193.532.429.076.236.006.494-.178.659-1.045.936-2.491 2.23-2.491 2.23s.409 1.896.705 3.268c.052.242-.044.492-.244.637-.2.146-.468.16-.682.035-1.213-.705-2.89-1.68-2.89-1.68s-1.677.975-2.89 1.68c-.214.125-.482.111-.682-.035-.2-.145-.296-.395-.244-.637.296-1.372.705-3.268.705-3.268s-1.446-1.294-2.491-2.23c-.184-.165-.254-.423-.178-.659.077-.236.285-.404.532-.429 1.395-.142 3.325-.339 3.325-.339s.784-1.775 1.351-3.058z" fill="url(#_Linear8)"/></g></g></g></svg>