<svg viewBox="0 0 48 48" xmlns="http://www.w3.org/2000/svg" xmlns:xlink="http://www.w3.org/1999/xlink"><linearGradient id="linear-gradient" gradientUnits="userSpaceOnUse" x1="24" x2="24" y1="5" y2="1"><stop offset="0" stop-color="#d3e6f5"/><stop offset="1" stop-color="#f0f7fc"/></linearGradient><linearGradient id="linear-gradient-2" xlink:href="#linear-gradient" y1="30" y2="5"/><linearGradient id="linear-gradient-3" gradientUnits="userSpaceOnUse" x1="24" x2="24" y1="45" y2="35"><stop offset="0" stop-color="#fe9661"/><stop offset="1" stop-color="#ffb369"/></linearGradient><linearGradient id="linear-gradient-4" gradientUnits="userSpaceOnUse" x1="24" x2="24" y1="31" y2="27"><stop offset="0" stop-color="#54a5ff"/><stop offset="1" stop-color="#8ad3fe"/></linearGradient><g id="Silver_Trophy" data-name="Silver Trophy"><path d="m12 28a1 1 0 0 1 -1-1 6.1 6.1 0 0 0 -2.94-5.2 14.31 14.31 0 0 1 -7.06-12.3 5.5 5.5 0 0 1 11 0v1.5a1 1 0 0 1 -2 0v-1.5a3.5 3.5 0 0 0 -7 0 12.31 12.31 0 0 0 6.08 10.58 8.1 8.1 0 0 1 3.92 6.92 1 1 0 0 1 -1 1z" fill="#b4cde1"/><path d="m36 28a1 1 0 0 1 -1-1 8.1 8.1 0 0 1 3.92-6.92 12.3 12.3 0 0 0 6.08-10.58 3.5 3.5 0 0 0 -7 0v1.5a1 1 0 0 1 -2 0v-1.5a5.5 5.5 0 0 1 11 0 14.3 14.3 0 0 1 -7.06 12.3 6.1 6.1 0 0 0 -2.94 5.2 1 1 0 0 1 -1 1z" fill="#b4cde1"/><path d="m30 35h-12l2-4h8z" fill="#4795ea"/><path d="m12 1h24a1 1 0 0 1 1 1v3a0 0 0 0 1 0 0h-26a0 0 0 0 1 0 0v-3a1 1 0 0 1 1-1z" fill="url(#linear-gradient)"/><path d="m36 5v7a19.51 19.51 0 0 1 -12 18 19.5 19.5 0 0 1 -12-18v-7z" fill="url(#linear-gradient-2)"/><path d="m15 35h18a1 1 0 0 1 1 1v9a0 0 0 0 1 0 0h-20a0 0 0 0 1 0 0v-9a1 1 0 0 1 1-1z" fill="url(#linear-gradient-3)"/><path d="m12 45h24v2h-24z" fill="#eb7f58"/><path d="m16 37h16v6h-16z" fill="#eb7f58"/><path d="m27 41h-6a1 1 0 0 1 0-2h6a1 1 0 0 1 0 2z" fill="#f0f7fc"/><rect fill="url(#linear-gradient-4)" height="4" rx="1" width="12" x="18" y="27"/></g></svg>